# xmcd
#
# Track frame offsets: 
#        150
#        16025
#        30875
#        50242
#        66635
#
# Disc length: 1092 seconds
#
# Revision: 0
# Processed by: cddbd v1.5.2PL0 Copyright (c) Steve Scherf et al.
# Submitted via: ExactAudioCopy v0.99pb5
#
DISCID=3b044205
DTITLE=The Pogues - Tuesday Morning
DYEAR=1993
DGENRE=Folk
TTITLE0=Tuesday Morning
TTITLE1=First Day Of Forever
TTITLE2=Turkish Song Of Damned
TTITLE3=London Calling
TTITLE4=I Fought The Law
EXTD=
EXTT0=
EXTT1=
EXTT2=
EXTT3=
EXTT4=
PLAYORDER=
